HIERARCHY
ROOT Hips
{
	OFFSET -192.239197 91.863327 268.157410
	CHANNELS 6 Xposition Yposition Zposition Zrotation Yrotation Xrotation 
	JOINT LeftUpLeg
	{
		OFFSET 0.103459 1.857816 10.548500
		CHANNELS 3 Zrotation Yrotation Xrotation
		JOINT LeftLeg
		{
			OFFSET 43.500000 -0.000004 -0.000002
			CHANNELS 3 Zrotation Yrotation Xrotation
			JOINT LeftFoot
			{
				OFFSET 42.372204 0.000000 0.000002
				CHANNELS 3 Zrotation Yrotation Xrotation
				JOINT LeftToe
				{
					OFFSET 17.300009 0.000003 0.000000
					CHANNELS 3 Zrotation Yrotation Xrotation
					End Site
					{
						OFFSET 0.000000 0.000000 0.000000
					}
				}
			}
		}
	}
	JOINT RightUpLeg
	{
		OFFSET 0.103456 1.857821 -10.548500
		CHANNELS 3 Zrotation Yrotation Xrotation
		JOINT RightLeg
		{
			OFFSET 43.500046 -0.000011 0.000021
			CHANNELS 3 Zrotation Yrotation Xrotation
			JOINT RightFoot
			{
				OFFSET 42.372261 -0.000019 0.000007
				CHANNELS 3 Zrotation Yrotation Xrotation
				JOINT RightToe
				{
					OFFSET 17.299994 -0.000004 0.000006
					CHANNELS 3 Zrotation Yrotation Xrotation
					End Site
					{
						OFFSET 0.000000 0.000000 0.000000
					}
				}
			}
		}
	}
	JOINT Spine
	{
		OFFSET 6.901965 -2.603729 -0.000004
		CHANNELS 3 Zrotation Yrotation Xrotation
		JOINT Spine1
		{
			OFFSET 12.588105 -0.000017 0.000001
			CHANNELS 3 Zrotation Yrotation Xrotation
			JOINT Spine2
			{
				OFFSET 12.343203 0.000021 -0.000004
				CHANNELS 3 Zrotation Yrotation Xrotation
				JOINT Neck
				{
					OFFSET 25.832893 0.000000 0.000007
					CHANNELS 3 Zrotation Yrotation Xrotation
					JOINT Head
					{
						OFFSET 11.766613 0.000003 -0.000001
						CHANNELS 3 Zrotation Yrotation Xrotation
						End Site
						{
							OFFSET 0.000000 0.000000 0.000000
						}
					}
				}
				JOINT LeftShoulder
				{
					OFFSET 19.745899 -1.480377 6.000118
					CHANNELS 3 Zrotation Yrotation Xrotation
					JOINT LeftArm
					{
						OFFSET 11.284114 -0.000022 -0.000021
						CHANNELS 3 Zrotation Yrotation Xrotation
						JOINT LeftForeArm
						{
							OFFSET 33.000061 0.000029 0.000027
							CHANNELS 3 Zrotation Yrotation Xrotation
							JOINT LeftHand
							{
								OFFSET 25.200005 0.000012 0.000013
								CHANNELS 3 Zrotation Yrotation Xrotation
								End Site
								{
									OFFSET 0.000000 0.000000 0.000000
								}
							}
						}
					}
				}
				JOINT RightShoulder
				{
					OFFSET 19.746094 -1.480389 -6.000068
					CHANNELS 3 Zrotation Yrotation Xrotation
					JOINT RightArm
					{
						OFFSET 11.284139 -0.000024 -0.000014
						CHANNELS 3 Zrotation Yrotation Xrotation
						JOINT RightForeArm
						{
							OFFSET 33.000092 0.000013 0.000007
							CHANNELS 3 Zrotation Yrotation Xrotation
							JOINT RightHand
							{
								OFFSET 25.199764 0.000144 0.000434
								CHANNELS 3 Zrotation Yrotation Xrotation
								End Site
								{
									OFFSET 0.000000 0.000000 0.000000
								}
							}
						}
					}
				}
			}
		}
	}
}
MOTION
Frames: 9
Frame Time: 0.033333
-224.099594 66.932388 291.881592 73.229586 13.910939 -105.779604 99.067741 -1.168388 173.440961 -54.915534 2.690208 -1.648117 79.061045 -1.350488 -9.198491 21.454555 0.003091 -0.000001 120.392466 13.596203 172.638195 -99.543928 -4.551986 4.762491 117.555397 -3.917049 13.280278 21.454558 -0.003109 -0.000017 15.528920 0.571481 -0.188743 21.044706 1.167664 -0.270392 20.726542 1.166148 -0.277425 8.847897 -18.265027 -0.575817 -28.542261 -1.441157 -6.768773 139.439104 -75.332861 39.974782 -33.352678 33.778024 8.843550 -37.463294 -11.435771 1.160973 6.695196 -15.684261 33.752333 91.342715 73.195531 -88.516007 -48.962959 -11.361683 8.694428 -30.045777 14.098362 -1.198915 6.355724 15.904557 -9.587394 
-224.618805 65.243507 288.990112 72.546021 14.339639 -106.563594 95.882489 -0.700489 174.406845 -60.845080 2.373684 -2.276642 74.809491 -1.592961 -10.286425 21.454555 0.003085 -0.000002 119.524240 15.131108 171.189184 -103.580488 -4.267301 3.941529 117.380093 -3.408818 13.907594 21.454551 -0.003104 -0.000018 15.558078 0.453912 -0.254270 21.102259 0.946491 -0.421477 20.784119 0.944061 -0.427171 7.883579 -18.739094 -0.145332 -28.192803 -1.488974 -6.621006 136.733776 -76.063596 42.660327 -35.359439 30.929115 4.976244 -36.324961 -11.229160 1.120401 6.313126 -16.094161 32.299818 88.862195 72.750414 -91.022714 -49.013622 -10.619020 10.109733 -30.923565 14.143202 -1.219125 6.061259 15.855997 -10.819032 
-225.094604 63.498650 286.167114 72.199758 14.955165 -106.962204 92.234560 -0.816099 174.477497 -67.787387 1.617270 -2.244724 75.146363 -1.201192 -8.998513 21.454551 0.003082 -0.000001 118.573477 16.800904 169.967659 -107.678212 -3.958379 2.904838 116.486499 -2.613070 13.568556 21.454558 -0.003104 -0.000018 15.660043 0.377997 -0.303136 21.305887 0.805253 -0.531476 20.987773 0.802160 -0.536317 7.135433 -19.343837 0.034576 -28.651202 -1.328106 -6.888416 133.101918 -76.251412 46.321506 -37.075565 26.892350 1.251937 -35.907356 -11.559781 1.132342 6.456065 -16.551901 30.943872 87.439727 72.174185 -92.483008 -48.940378 -8.809956 10.749081 -31.234458 14.375842 -1.240362 5.886061 15.802741 -11.231130 
-225.571701 61.967239 283.523499 71.363825 15.866015 -106.748091 89.149822 -0.374498 171.823872 -72.778029 2.839482 -2.148316 73.726899 -1.227866 -8.331252 21.454553 0.003095 -0.000000 117.541504 18.909502 168.360024 -111.212207 -3.679247 2.185514 115.523006 -2.000815 13.118327 21.454557 -0.003105 -0.000021 15.767676 0.293710 -0.397021 21.520762 0.656072 -0.732464 21.202663 0.651777 -0.736396 6.333257 -19.371584 -0.180728 -29.000771 -1.528199 -7.177797 127.912313 -76.000929 51.587770 -38.918927 22.237991 -2.407295 -36.247582 -12.771520 1.219366 6.015343 -17.031444 31.102779 86.149681 71.652632 -93.800545 -48.456282 -6.527439 12.239540 -31.331556 14.490632 -1.249725 5.746436 16.233481 -11.351923 
-226.048004 60.686420 281.040985 70.410815 17.376556 -106.119290 85.842378 0.262106 169.867611 -77.281173 2.992413 -2.111137 73.892040 -0.883824 -7.094101 21.454553 0.003090 0.000000 116.368050 21.166106 166.770215 -113.968502 -3.392957 1.526754 114.336895 -1.427597 13.054975 21.454565 -0.003116 -0.000017 15.815752 0.267834 -0.457778 21.616615 0.616369 -0.857441 21.298543 0.611311 -0.861127 5.218514 -19.371149 -0.543583 -29.161052 -1.290890 -7.898012 122.239472 -75.906570 57.319057 -41.580621 17.772579 -6.852966 -37.102380 -14.186669 1.331836 5.729275 -18.315151 31.823197 84.141872 71.449099 -95.792891 -48.011015 -4.076628 14.062608 -31.126473 14.769570 -1.263487 5.801062 16.605035 -11.328864 
-226.438995 59.530071 278.744507 69.432985 19.353780 -105.320404 82.398856 1.042303 168.409898 -81.534973 2.685224 -2.120838 76.204591 -0.384082 -5.877295 21.454553 0.003099 0.000001 115.208831 23.249202 165.264719 -116.100102 -3.189254 0.828732 113.475301 -0.878599 13.123851 21.454562 -0.003112 -0.000019 15.816307 0.245855 -0.492348 21.617661 0.579268 -0.930064 21.299588 0.573785 -0.933528 4.179960 -19.412537 -1.086482 -29.209355 -0.910240 -8.884620 117.148017 -75.772227 62.457647 -44.532990 13.193049 -10.767581 -38.721797 -16.106650 1.496873 4.114647 -19.451870 33.618198 81.851771 71.407189 -98.045624 -47.551603 -1.066472 15.101950 -30.674096 15.006119 -1.269581 6.184450 16.238266 -10.764925 
-226.805298 58.555729 276.546204 68.313114 21.302233 -104.499210 79.406297 1.854994 167.072096 -85.178688 2.036733 -2.042433 78.838114 0.003239 -4.760816 21.454550 0.003115 0.000003 114.569081 25.155812 163.643478 -117.534892 -3.051229 0.278751 113.098596 -0.494820 13.532715 21.454560 -0.003105 -0.000021 15.887187 0.166139 -0.514009 21.759825 0.425887 -0.987573 21.441760 0.420054 -0.990108 2.794832 -19.169961 -1.757006 -29.163286 -0.527029 -9.937913 111.201012 -75.574793 68.450995 -47.458552 8.548658 -14.698041 -41.537642 -17.359667 1.653147 2.021860 -19.441111 37.424580 79.286728 71.625571 -100.543417 -47.040602 2.439998 16.069692 -30.504024 15.192745 -1.278169 7.194800 15.381134 -9.512967 
-227.079803 57.762451 274.450409 67.132584 23.392708 -103.854003 76.604902 2.370800 165.081178 -88.343777 1.950707 -1.841525 81.071607 0.198501 -3.738239 21.454551 0.003100 0.000002 114.368280 26.640902 162.085648 -118.339407 -2.947105 -0.182762 113.268900 -0.255576 14.631148 21.454562 -0.003111 -0.000017 15.940050 0.044798 -0.522377 21.866453 0.187427 -1.026834 21.548398 0.181352 -1.027927 1.775118 -18.730214 -2.550703 -29.466222 -0.341544 -10.866558 105.265544 -74.982534 74.456425 -50.058094 3.750858 -17.331981 -44.129811 -18.103533 1.775451 0.783879 -19.210126 40.190814 76.543997 71.634355 -103.230796 -46.197251 6.227301 16.048762 -30.078784 15.544302 -1.292309 8.243831 13.942493 -6.853656 
-227.289093 57.029469 272.405701 66.159412 25.627814 -103.336309 73.835001 2.751603 163.307501 -91.348296 1.899231 -1.788148 83.171275 0.458725 -2.677567 21.454553 0.003097 0.000000 114.556985 27.583096 161.053620 -118.786006 -2.890226 -0.180098 113.746692 -0.359427 15.610175 21.454563 -0.003110 -0.000018 15.972312 -0.063928 -0.534745 21.931924 -0.025376 -1.071880 21.613881 -0.031714 -1.071691 0.590554 -18.134152 -3.196626 -29.766709 -0.385859 -11.457904 97.516373 -74.282474 82.267498 -52.338592 -0.502790 -18.963523 -46.017119 -18.355134 1.848324 -0.136522 -18.761531 40.906362 73.385096 71.817916 -106.308712 -45.595426 10.296359 15.964918 -29.537215 15.509801 -1.279595 8.970694 12.920864 -5.127883 
